Faced with extinction, two park rangers are forced to defend the national park against hordes of rampaging orcs. Ancient and long forgotten, these orcs are unleashed from the depths of the mountains, and they won't stop until we're all dead.

IMDB rating: 3.6/10 (from 494 users)

CAST: Adam Johnson,Maclain Nelson,Brad Johnson

Genereal
Format                           : Matroska
File size                        : 649 MiB
Duration                         : 1h 19mn
Overall bit rate                 : 1 135 Kbps
Encoded date                     : UTC 2011-09-29 18:55:07
Writing application              : mkvmerge v4.9.1 ('Ich will') creado el Jul 11 2011 23:53:15
Writing library                  : libebml v1.2.1 + libmatroska v1.1.1

Video
ID                               : 1
Format                           : AVC
Format/Info                      : Advanced Video Codec
Format profile                   : Main@L3.0
Format settings, CABAC           : Yes
Format settings, ReFrames        : 4 frames
Muxing mode                      : Container profile=Unknown@3.0
Codec ID                         : V_MPEG4/ISO/AVC
Duration                         : 1h 19mn
Bit rate                         : 984 Kbps
Nominal bit rate                 : 1 006 Kbps
Width                            : 624 pixels
Height                           : 352 pixels
Display aspect ratio             : 16:9
Frame rate mode                  : Variable
Frame rate                       : 23.976 fps
Resolution                       : 8 bits
Colorimetry                      : 4:2:0
Scan type                        : Progressive
Bits/(Pixel*Frame)               : 0.187
Stream size                      : 562 MiB (87%)
Writing library                  : x264 core 112

Audio
ID                               : 2
Format                           : AC-3
Format/Info                      : Audio Coding 3
Codec ID                         : A_AC3
Duration                         : 1h 19mn
Bit rate mode                    : Constant
Bit rate                         : 128 Kbps
Channel(s)                       : 2 channels
Channel positions                : Front: L R
Sampling rate                    : 48.0 KHz
Stream size                      : 73.2 MiB (11%)

Text(subtitles)
ID                               : 3
Format                           : UTF-8
Codec ID                         : S_TEXT/UTF8
Codec ID/Info                    : UTF-8 Plain Text
Language                         : ROMANIAN

Recommended player :VLC media player....http://www.videolan.org/vlc/

SEED back for SPEED 
